<?xml version="1.0" encoding="UTF-8"?>
<svg version="1.1" xmlns="http://www.w3.org/2000/svg" width="600" height="150">
<path d="M0 0 C198 0 396 0 600 0 C600 49.5 600 99 600 150 C402 150 204 150 0 150 C0 100.5 0 51 0 0 Z " fill="#282828" transform="translate(0,0)"/>
<path d="M0 0 C3.22195132 2.50288922 6.00831466 5.08783633 8.73046875 8.12109375 C11.76923046 6.77639225 13.6865991 5.31733603 15.91796875 2.87109375 C24.52358234 -5.89826302 35.86400612 -11.96804678 48.29296875 -12.50390625 C58.71734782 -12.01349517 66.77899014 -7.98853916 73.8203125 -0.359375 C81.14875666 9.15711179 82.79147938 19.04453524 82.04736328 30.76611328 C81.0366865 38.27689005 76.85356086 45.54345559 71.41796875 50.74609375 C69.640625 52.01171875 69.640625 52.01171875 67.73046875 53.12109375 C67.04855469 53.5284375 66.36664063 53.93578125 65.6640625 54.35546875 C56.98122315 58.64546721 45.84849683 58.87273501 36.65234375 55.98046875 C29.2213797 53.27964907 22.3105185 49.48715029 15.73046875 45.12109375 C15.39015625 45.87390625 15.04984375 46.62671875 14.69921875 47.40234375 C13.06425058 50.9853591 11.40152374 54.55482857 9.73046875 58.12109375 C9.42544434 58.77867676 9.12041992 59.43625977 8.80615234 60.11376953 C0.80944197 77.24244869 -8.81179533 92.26758843 -27.26953125 99.12109375 C-28.05199219 99.44078125 -28.83445312 99.76046875 -29.640625 100.08984375 C-41.4407058 104.16795167 -58.13183986 104.19993347 -69.68359375 99.43359375 C-85.17255527 91.57212688 -95.39144916 80.91137743 -102.26953125 65.12109375 C-107.44035133 48.71533568 -106.97321667 29.78432456 -99.14453125 14.30859375 C-95.57185477 8.17863305 -91.30965612 3.09097298 -86.26953125 -1.87890625 C-85.63273437 -2.52601562 -84.9959375 -3.173125 -84.33984375 -3.83984375 C-59.0832399 -27.83885737 -25.03529839 -17.94455549 0 0 Z " fill="#1036AA" transform="translate(118.26953125,30.87890625)"/>
<path d="M0 0 C5.73661417 3.84386273 11.04466808 8.13832822 16.27197266 12.65087891 C15.77697266 14.13587891 15.77697266 14.13587891 15.27197266 15.65087891 C13.27197266 15.65087891 13.27197266 15.65087891 11.64697266 14.15087891 C11.19322266 13.65587891 10.73947266 13.16087891 10.27197266 12.65087891 C10.04123047 13.46556641 9.81048828 14.28025391 9.57275391 15.11962891 C7.97841069 19.44781589 5.81683769 23.19994899 3.45947266 27.15087891 C3.0334375 27.88435547 2.60740234 28.61783203 2.16845703 29.37353516 C-1.44274048 35.4814305 -5.17845417 40.85287767 -11.04052734 45.02587891 C-11.73791016 45.52861328 -12.43529297 46.03134766 -13.15380859 46.54931641 C-13.67330078 46.91283203 -14.19279297 47.27634766 -14.72802734 47.65087891 C-9.09914291 44.52491446 -4.57575689 41.92369347 -0.72802734 36.65087891 C2.02197266 34.83837891 2.02197266 34.83837891 4.27197266 33.65087891 C3.08436361 40.50246954 -3.57578095 46.11385213 -8.81787109 50.33056641 C-17.52779766 56.35092464 -27.45095269 57.03631955 -37.72802734 55.65087891 C-47.61417072 52.97338174 -54.8700262 44.92511871 -60.41552734 36.65087891 C-64.16585096 29.20246459 -62.81101767 21.44801836 -60.72802734 13.65087891 C-57.29810257 3.70409707 -51.79078321 -3.10017531 -42.35302734 -7.78662109 C-26.95029179 -13.29441043 -13.00279327 -8.43568181 0 0 Z " fill="#262629" transform="translate(99.72802734375,47.34912109375)"/>
<path d="M0 0 C-0.66 0.33 -1.32 0.66 -2 1 C-4.57421875 0.07421875 -4.57421875 0.07421875 -7.6875 -1.3125 C-21.55928163 -7.46402705 -37.86035764 -8.59284175 -52.27734375 -3.25390625 C-66.13916107 3.13008709 -73.84282978 13.96641465 -79.140625 28.02734375 C-82.64650214 40.15449149 -78.73961514 54.61706887 -72.8125 65.4375 C-64.96558752 77.70661315 -53.29754907 86.59582165 -39 90 C-27.05214627 92.34630554 -15.82457154 92.22463479 -5.53125 85.3515625 C-1.43423608 82.30540605 2.0584866 79.22043227 5 75 C4.59910156 75.38671875 4.19820313 75.7734375 3.78515625 76.171875 C-5.90514462 85.04915743 -17.14402868 87.48310539 -30 87 C-27.28838249 84.28838249 -24.11077149 83.53550912 -20.5625 82.3125 C-13.38343108 79.72620162 -7.1773508 76.53973096 -1 72 C-0.33484375 71.51789063 0.3303125 71.03578125 1.015625 70.5390625 C5.78869766 66.78286184 8.86938043 62.16036193 12 57 C11.34 57.680625 10.68 58.36125 10 59.0625 C9.00344639 60.04517404 8.00303447 61.02394201 7 62 C6.44183594 62.55429688 5.88367188 63.10859375 5.30859375 63.6796875 C-2.74134007 71.24225581 -11.83706212 75.95060647 -23 76 C-20.00995755 74.41088653 -17.02565914 73.30714327 -13.8125 72.25 C1.43457273 66.73510135 12.17059137 54.48662438 19 40 C23.14508162 41.74163093 24.43606028 43.66207159 26.21875 47.6875 C28.77730574 55.260825 26.98230104 60.95228624 23.5625 67.875 C15.8117138 82.74534978 6.07344718 95.0318002 -10 101 C-10.78246094 101.3196875 -11.56492187 101.639375 -12.37109375 101.96875 C-24.17117455 106.04685792 -40.86230861 106.07883972 -52.4140625 101.3125 C-67.90302402 93.45103313 -78.12191791 82.79028368 -85 67 C-90.18876627 50.53730303 -89.58477583 31.74927443 -82 16.125 C-76.29642008 6.35086514 -67.3311219 0.21113431 -57 -4 C-55.89011719 -4.46535156 -54.78023437 -4.93070313 -53.63671875 -5.41015625 C-35.33608607 -12.3477773 -16.95983069 -9.73693809 0 0 Z " fill="#437BDC" transform="translate(101,29)"/>
<path d="M0 0 C6.86926153 -0.38882612 12.47811394 0.88738905 19 3 C19.61472168 3.19335938 20.22944336 3.38671875 20.86279297 3.5859375 C33.47467552 7.62273666 42.65393528 13.4181787 52 23 C55.03876171 21.6552985 56.95613035 20.19624228 59.1875 17.75 C67.79311359 8.98064323 79.13353737 2.91085947 91.5625 2.375 C101.98687907 2.86541108 110.04852139 6.89036709 117.08984375 14.51953125 C123.03497478 22.23969117 125.18004247 29.52432208 125.1875 39.0625 C125.19974609 39.89072266 125.21199219 40.71894531 125.22460938 41.57226562 C125.22654297 42.36439453 125.22847656 43.15652344 125.23046875 43.97265625 C125.23457764 44.69718994 125.23868652 45.42172363 125.24291992 46.16821289 C125 48 125 48 123 50 C122.82984375 49.20335937 122.6596875 48.40671875 122.484375 47.5859375 C120.58795303 39.29413505 118.52377828 32.74325153 111 28 C103.12016394 24.44185697 94.50479314 23.87038423 86 25 C79.13297385 27.69740739 74.47779959 33.32716064 70 39 C72.14996411 43.8705348 75.56864731 45.85174772 80.32421875 48.09765625 C83.34690706 49.11698618 85.81462558 49.30031107 89 49.3125 C90.010625 49.32925781 91.02125 49.34601563 92.0625 49.36328125 C95.44639709 48.94479398 97.27465492 48.0203513 100 46 C102.42130331 42.36804504 102.21022785 40.61650652 102.125 36.3125 C102.10695313 35.13300781 102.08890625 33.95351563 102.0703125 32.73828125 C102.04710937 31.83464844 102.02390625 30.93101563 102 30 C106.7734375 30.734375 106.7734375 30.734375 108.8125 33.125 C110.85936189 38.08056037 110.52393717 41.67876713 108.5625 46.625 C108.046875 47.73875 107.53125 48.8525 107 50 C106.814375 51.3303125 106.814375 51.3303125 106.625 52.6875 C105.70969118 56.07414262 103.87599072 57.10446066 101 59 C96.00794154 61.69840998 91.00428781 61.77688621 85.61328125 60.3828125 C73.1708321 55.96837999 63.89770184 45.37314933 54.42675781 36.53125 C52.87063339 35.08028216 51.31160863 33.63256329 49.75 32.1875 C49.24992432 31.72472656 48.74984863 31.26195313 48.23461914 30.78515625 C44.86391044 27.70106674 41.35971315 24.96860917 37.64453125 22.3203125 C36 21 36 21 33.75 18.0625 C26.460648 8.81156159 11.18144067 3.96458958 0 2 C0 1.34 0 0.68 0 0 Z " fill="#1B4FE3" transform="translate(75,16)"/>
<path d="M0 0 C3.96509139 -0.09990539 7.92968163 -0.17194834 11.89575195 -0.21972656 C13.89756051 -0.24940781 15.89901919 -0.30027058 17.90039062 -0.3515625 C26.83945294 -0.44162862 33.62887503 0.26855185 40.5625 6.1875 C42.61200326 10.19739768 42.63970254 13.58449221 42 18 C40.04641812 23.44946524 37.05274167 26.22751666 32.11035156 29.09716797 C29.77633596 30.09568598 28.19778123 30.23139687 25.671875 30.1953125 C24.87265625 30.18886719 24.0734375 30.18242188 23.25 30.17578125 C22.425 30.15902344 21.6 30.14226562 20.75 30.125 C19.90953125 30.11597656 19.0690625 30.10695313 18.203125 30.09765625 C16.13529396 30.07415817 14.06761005 30.03828908 12 30 C12.05985162 32.62748631 12.14676224 35.24916995 12.25 37.875 C12.26417969 38.62136719 12.27835938 39.36773437 12.29296875 40.13671875 C12.35986341 42.57138381 12.35986341 42.57138381 13 46 C14.32 46.66 15.64 47.32 17 48 C11.39 48 5.78 48 0 48 C1.32 47.34 2.64 46.68 4 46 C4.09878601 39.93111949 4.17142949 33.86270561 4.21972656 27.79321289 C4.23985731 25.72802582 4.26716445 23.66289584 4.30175781 21.59790039 C4.35021162 18.63152999 4.37295385 15.66591228 4.390625 12.69921875 C4.41127014 11.7741301 4.43191528 10.84904144 4.45318604 9.8959198 C4.62170801 4.88455093 4.62170801 4.88455093 1.97558594 0.89379883 C1.32364258 0.59884521 0.67169922 0.3038916 0 0 Z " fill="#EEF0F6" transform="translate(208,34)"/>
<path d="M0 0 C4.01888628 -1.11938032 7.0114012 -1.32134615 11 0 C15.15103991 4.02826632 18.05007308 9.22089468 20.93774414 14.19067383 C21.89995244 15.82959033 22.94579346 17.41869019 24 19 C28.1589169 17.47379196 30.24149447 14.46451578 32.75 11 C33.36681641 10.18015625 33.36681641 10.18015625 33.99609375 9.34375 C36.2943834 6.47508721 36.2943834 6.47508721 37 3 C35.68 2.01 34.36 1.02 33 0 C50.16 0 67.32 0 85 0 C85.99 5.445 85.99 5.445 87 11 C85.9171875 9.8553125 85.9171875 9.8553125 84.8125 8.6875 C79.55904219 3.6675292 75.7230778 2.53426819 68.6875 2.3125 C66.150625 2.209375 63.61375 2.10625 61 2 C61 8.93 61 15.86 61 23 C64.83625 22.87625 64.83625 22.87625 68.75 22.75 C69.54889648 22.73420898 70.34779297 22.71841797 71.17089844 22.70214844 C76.4478459 22.44959931 77.00023828 21.99976172 81 18 C81 22.29 81 26.58 81 31 C80.01 29.68 79.02 28.36 78 27 C74.43755339 25.8125178 71.02681357 25.64932792 67.3125 25.4375 C64.899375 25.293125 62.48625 25.14875 60 25 C60 32.26 60 39.52 60 47 C62.68125 46.9175 65.3625 46.835 68.125 46.75 C69.37434326 46.72631348 69.37434326 46.72631348 70.64892578 46.70214844 C76.66286712 46.42950495 80.3732494 44.66340293 84.6796875 40.296875 C85.07414062 39.78640625 85.46859375 39.2759375 85.875 38.75 C86.926875 37.38875 86.926875 37.38875 88 36 C89 38 89 38 86 49 C73.79 48.67 61.58 48.34 49 48 C49.99 47.01 50.98 46.02 52 45 C52.46878637 42.97048789 52.46878637 42.97048789 52.43237305 40.7121582 C52.45216721 39.85149246 52.47196136 38.99082672 52.49235535 38.1040802 C52.49874527 37.17899155 52.50513519 36.25390289 52.51171875 35.30078125 C52.52966995 34.35059616 52.54762115 33.40041107 52.56611633 32.4214325 C52.62031893 29.38516687 52.65414704 26.34905933 52.6875 23.3125 C52.72066428 21.25453525 52.7551531 19.19659138 52.79101562 17.13867188 C52.8760512 12.09256181 52.94281498 7.04649944 53 2 C47.9237147 1.88929872 45.09155206 1.84231614 41 5 C39.2556101 6.73632646 37.5699979 8.5330781 35.9375 10.375 C34.68259766 11.77878906 34.68259766 11.77878906 33.40234375 13.2109375 C31.20479701 15.76223567 29.08269583 18.3545434 27 21 C28.30620591 24.60527127 29.87035198 27.46317658 32.15234375 30.5390625 C32.76400391 31.36664063 33.37566406 32.19421875 34.00585938 33.046875 C34.96202148 34.32304688 34.96202148 34.32304688 35.9375 35.625 C36.57107422 36.48351562 37.20464844 37.34203125 37.85742188 38.2265625 C41.65039552 43.35304453 41.65039552 43.35304453 46 48 C42.14526943 48.69008739 38.82803576 48.92597081 35 48 C31.89036532 44.75592623 30.08223689 40.95210633 28 37 C26.88901818 35.41253042 25.74654258 33.84624817 24.5625 32.3125 C24.06878906 31.66925781 23.57507813 31.02601562 23.06640625 30.36328125 C22.71449219 29.91339844 22.36257813 29.46351562 22 29 C18.97140184 31.93682246 16.04335406 34.95704894 13.1875 38.0625 C12.28064453 39.03896484 12.28064453 39.03896484 11.35546875 40.03515625 C9.62143488 42.15091764 9.62143488 42.15091764 10 46 C10.66 46.66 11.32 47.32 12 48 C7.71 48 3.42 48 -1 48 C-0.01 47.34 0.98 46.68 2 46 C6.89739967 42.30196351 10.70738952 38.16226241 14.5 33.375 C14.95769775 32.81256592 15.41539551 32.25013184 15.88696289 31.6706543 C18.34184253 28.7098253 18.34184253 28.7098253 18.78808594 25.07055664 C17.88342784 22.69372724 16.72570517 20.90829579 15.234375 18.84765625 C14.67363281 18.07099609 14.11289062 17.29433594 13.53515625 16.49414062 C12.94605469 15.69169922 12.35695313 14.88925781 11.75 14.0625 C10.88955078 12.86463867 10.88955078 12.86463867 10.01171875 11.64257812 C6.93338385 7.41074416 3.8327537 3.56619 0 0 Z " fill="#EAEBF1" transform="translate(271,34)"/>
<path d="M0 0 C15.88888889 0 15.88888889 0 22.3125 6.25 C27.2582165 14.30968614 27.95224747 21.63801645 27 31 C25.7249889 36.09284096 24.04581061 39.12849116 20 42.5 C16.07195762 44.46402119 12.87603021 45.15003399 8.5 45.1875 C7.37078125 45.20876953 7.37078125 45.20876953 6.21875 45.23046875 C4 45 4 45 0 43 C0 28.81 0 14.62 0 0 Z " fill="#292929" transform="translate(554,36)"/>
<path d="M0 0 C6.86926153 -0.38882612 12.47811394 0.88738905 19 3 C19.61472168 3.19335938 20.22944336 3.38671875 20.86279297 3.5859375 C35.87243109 8.39020794 46.13458806 16.62615458 57 28 C59.57622958 30.59551274 62.16844532 33.16095886 64.8125 35.6875 C67 38 67 38 67 40 C67.515625 40.226875 68.03125 40.45375 68.5625 40.6875 C71.29105996 42.1567246 73.65881067 43.90740116 76.12109375 45.78125 C80.33767473 48.51632955 84.00403688 49.29338279 89 49.3125 C90.010625 49.32925781 91.02125 49.34601563 92.0625 49.36328125 C95.44639709 48.94479398 97.27465492 48.0203513 100 46 C102.42130331 42.36804504 102.21022785 40.61650652 102.125 36.3125 C102.10695313 35.13300781 102.08890625 33.95351563 102.0703125 32.73828125 C102.04710937 31.83464844 102.02390625 30.93101563 102 30 C106.7734375 30.734375 106.7734375 30.734375 108.8125 33.125 C110.85936189 38.08056037 110.52393717 41.67876713 108.5625 46.625 C108.046875 47.73875 107.53125 48.8525 107 50 C106.814375 51.3303125 106.814375 51.3303125 106.625 52.6875 C105.70969118 56.07414262 103.87599072 57.10446066 101 59 C96.00794154 61.69840998 91.00428781 61.77688621 85.61328125 60.3828125 C73.1708321 55.96837999 63.89770184 45.37314933 54.42675781 36.53125 C52.87063339 35.08028216 51.31160863 33.63256329 49.75 32.1875 C49.24992432 31.72472656 48.74984863 31.26195313 48.23461914 30.78515625 C44.86391044 27.70106674 41.35971315 24.96860917 37.64453125 22.3203125 C36 21 36 21 33.75 18.0625 C26.460648 8.81156159 11.18144067 3.96458958 0 2 C0 1.34 0 0.68 0 0 Z " fill="#4A8EDF" transform="translate(75,16)"/>
<path d="M0 0 C1.93478221 1.85739092 3.77252165 3.70218712 5.40234375 5.8359375 C12.3609598 14.71710517 22.75226223 19.10863695 33.78173828 20.73730469 C38.71863532 21.32195153 43.66245248 21.65939958 48.625 21.9375 C49.67389404 22.00751221 50.72278809 22.07752441 51.8034668 22.1496582 C61.72569597 22.55695165 69.97063238 20.11252729 77.9375 14.0625 C78.81277344 13.41410156 79.68804687 12.76570313 80.58984375 12.09765625 C83.08179694 9.92880882 84.96739771 7.59407058 87 5 C89.25 3.6875 89.25 3.6875 91 3 C87.06826231 14.31377581 76.32529305 21.77010838 66 27 C60.7783002 29.31158711 55.41778248 31.20579931 50 33 C63.76148363 33.2663513 74.5718815 29.0377027 85 20 C80.92494706 28.97295311 72.02942815 34.58164819 63.13671875 38.1484375 C49.83591076 41.75936669 35.75675004 38.05450657 23.89453125 31.8046875 C12.70694272 24.82942987 5.06461613 15.06109615 0 3 C0 2.01 0 1.02 0 0 Z " fill="#183AEB" transform="translate(23,82)"/>
<path d="M0 0 C0.21884354 0.55488098 0.43768707 1.10976196 0.66316223 1.68145752 C2.94332769 7.45933996 5.23200259 13.23379821 7.52563477 19.00634766 C8.38036012 21.160755 9.23291643 23.3160242 10.08325195 25.47216797 C11.30630553 28.57228393 12.53714149 31.6692106 13.76953125 34.765625 C14.14777542 35.72929993 14.52601959 36.69297485 14.91572571 37.68585205 C15.27587265 38.58648376 15.63601959 39.48711548 16.00708008 40.41503906 C16.32018631 41.20557678 16.63329254 41.9961145 16.95588684 42.81060791 C18.1161492 45.42876215 18.1161492 45.42876215 21 49 C15.72 49 10.44 49 5 49 C5.99 48.34 6.98 47.68 8 47 C8.25660094 43.92078868 8.39431504 41.78863007 7 39 C-1.91 38.67 -10.82 38.34 -20 38 C-20.33 40.97 -20.66 43.94 -21 47 C-20.34 47.66 -19.68 48.32 -19 49 C-22.3 49 -25.6 49 -29 49 C-28.30003906 48.29230469 -27.60007812 47.58460937 -26.87890625 46.85546875 C-22.62189439 41.73775776 -20.46215365 35.40034541 -17.9375 29.3125 C-17.41690391 28.08360769 -16.89542508 26.85508895 -16.37304688 25.62695312 C-13.66799951 19.20720377 -11.13708443 12.78833333 -8.97143555 6.16552734 C-7.28756056 2.41182764 -4.2677553 0 0 0 Z " fill="#ECEEF4" transform="translate(431,33)"/>
<path d="M0 0 C4.10391862 -0.1177595 8.20739356 -0.18776774 12.3125 -0.25 C13.46041016 -0.28351562 14.60832031 -0.31703125 15.79101562 -0.3515625 C24.8209862 -0.45388511 32.33996518 0.99039418 40 5.9375 C46.1457962 12.27535233 46.49184791 18.87202823 46.39453125 27.3828125 C45.77956429 33.02102445 43.85301857 36.86634818 40 41 C33.50626981 45.99282085 28.06458434 48.13757149 19.921875 48.09765625 C18.18164062 48.09282227 18.18164062 48.09282227 16.40625 48.08789062 C15.1996875 48.07951172 13.993125 48.07113281 12.75 48.0625 C11.52796875 48.05798828 10.3059375 48.05347656 9.046875 48.04882812 C6.03120054 48.03704815 3.01562502 48.02059853 0 48 C0.97356445 47.29629272 0.97356445 47.29629272 1.96679688 46.57836914 C4.96020125 42.78233844 4.57522387 39.45345803 4.53125 34.74609375 C4.5350769 33.84883072 4.53890381 32.95156769 4.54284668 32.02711487 C4.54556494 30.1333809 4.53820971 28.23960933 4.52148438 26.34594727 C4.50004784 23.44397591 4.52130114 20.54447317 4.546875 17.64257812 C4.5442322 15.80207786 4.53910821 13.96157914 4.53125 12.12109375 C4.53934692 11.25230087 4.54744385 10.383508 4.55578613 9.48838806 C4.61149778 4.69981931 4.61149778 4.69981931 1.96679688 0.92993164 C1.31775391 0.6230542 0.66871094 0.31617676 0 0 Z M12 2 C12 16.19 12 30.38 12 45 C17.83304796 47.91652398 23.11905238 47.84997062 29.3125 45.8125 C32.96132011 44.26011928 34.91884574 42.44190897 37 39 C40.19271567 30.86782929 40.34217345 21.68376954 37.375 13.4375 C34.40294103 7.04179713 30.56536661 4.62614664 24 2 C20.04 2 16.08 2 12 2 Z " fill="#E9EBF1" transform="translate(542,34)"/>
<path d="M0 0 C4.19980094 2.71003198 6.5377793 5.87198394 7.6015625 10.76953125 C7.84109056 15.37729465 7.59696446 18.92366295 4.6875 22.625 C0.20682494 26.58466633 -4.03279839 26.39339783 -9.78515625 26.3515625 C-16.50382495 25.61683567 -22.70916516 22.26602458 -27 17 C-22.33306719 6.82789887 -11.97918368 -3.30058545 0 0 Z " fill="#272829" transform="translate(171,40)"/>
<path d="M0 0 C3.526875 -0.12375 3.526875 -0.12375 7.125 -0.25 C7.85348145 -0.28641602 8.58196289 -0.32283203 9.33251953 -0.36035156 C14.39696717 -0.4455145 17.17407083 0.75306901 21 4 C23.30083026 7.18017056 23.26946808 10.07795377 23.25 13.9375 C23.25515625 14.95714844 23.2603125 15.97679687 23.265625 17.02734375 C22.98750429 20.13984173 22.504468 22.26243956 21 25 C17.58361644 27.69586665 13.53186612 27.26315178 9.375 27.1875 C8.694375 27.18685547 8.01375 27.18621094 7.3125 27.18554688 C2.28161154 27.14080577 2.28161154 27.14080577 0 26 C0 17.42 0 8.84 0 0 Z " fill="#292929" transform="translate(220,36)"/>
<path d="M0 0 C11.88 0 23.76 0 36 0 C38.25 7.875 38.25 7.875 37 11 C36.59007812 10.50628906 36.18015625 10.01257812 35.7578125 9.50390625 C35.21898437 8.86324219 34.68015625 8.22257812 34.125 7.5625 C33.59132813 6.92441406 33.05765625 6.28632812 32.5078125 5.62890625 C29.20645391 2.06241264 24.92181487 2.66294448 20.375 2.4375 C17.61125 2.293125 14.8475 2.14875 12 2 C12 9.26 12 16.52 12 24 C15.34125 23.7834375 15.34125 23.7834375 18.75 23.5625 C20.00296875 23.48128906 21.2559375 23.40007813 22.546875 23.31640625 C26.36769339 23.03417168 26.36769339 23.03417168 30 22 C30.33 21.01 30.66 20.02 31 19 C31.33 19 31.66 19 32 19 C32 22.63 32 26.26 32 30 C31.01 29.01 30.02 28.02 29 27 C25.53287889 25.84429296 22.4585044 25.67164707 18.8125 25.4375 C15.4403125 25.2209375 15.4403125 25.2209375 12 25 C12 32.26 12 39.52 12 47 C24.35091526 47.16076362 24.35091526 47.16076362 35 42 C36.88068138 39.7412435 38.41797641 37.49288565 40 35 C41.38971011 37.77942022 40.58597169 39.07038614 39.6875 42 C39.42324219 42.886875 39.15898438 43.77375 38.88671875 44.6875 C38 47 38 47 36 49 C33.2701631 49.10454373 30.65234943 49.08936137 27.9296875 48.9765625 C27.13345978 48.95153656 26.33723206 48.92651062 25.51687622 48.90072632 C22.96915696 48.81843302 20.42220226 48.72188097 17.875 48.625 C16.149771 48.56676988 14.42451046 48.5094664 12.69921875 48.453125 C8.46570463 48.3128406 4.23282193 48.15976487 0 48 C1.32 47.34 2.64 46.68 4 46 C4.09878601 39.93111949 4.17142949 33.86270561 4.21972656 27.79321289 C4.23985731 25.72802582 4.26716445 23.66289584 4.30175781 21.59790039 C4.35021162 18.63152999 4.37295385 15.66591228 4.390625 12.69921875 C4.41127014 11.7741301 4.43191528 10.84904144 4.45318604 9.8959198 C4.45348816 9.03525406 4.45379028 8.17458832 4.45410156 7.2878418 C4.46298401 6.53061325 4.47186646 5.7733847 4.48101807 4.99320984 C4.07789591 2.3949651 4.07789591 2.3949651 0 0 Z " fill="#EFF1F7" transform="translate(500,34)"/>
<path d="M0 0 C14.19 0 28.38 0 43 0 C41 11 41 11 39 13 C38.80664062 12.36191406 38.61328125 11.72382812 38.4140625 11.06640625 C38.02347656 9.82697266 38.02347656 9.82697266 37.625 8.5625 C37.36976563 7.73878906 37.11453125 6.91507813 36.8515625 6.06640625 C36.19117773 3.82201984 36.19117773 3.82201984 34 3 C30.7 2.67 27.4 2.34 24 2 C24.33 16.52 24.66 31.04 25 46 C26.65 46.33 28.3 46.66 30 47 C30 47.33 30 47.66 30 48 C24.06 48 18.12 48 12 48 C13.32 47.01 14.64 46.02 16 45 C16.61132661 42.97991998 16.61132661 42.97991998 16.54589844 40.7121582 C16.57547638 39.42115959 16.57547638 39.42115959 16.60565186 38.1040802 C16.60688049 37.17899155 16.60810913 36.25390289 16.609375 35.30078125 C16.62591125 34.35059616 16.64244751 33.40041107 16.65948486 32.4214325 C16.70808959 29.38505674 16.72936352 26.34918223 16.75 23.3125 C16.77814924 21.2545319 16.80807518 19.19658728 16.83984375 17.13867188 C16.91385197 12.09248916 16.9633504 7.04658676 17 2 C15.5581345 2.13987545 14.11682773 2.28551845 12.67578125 2.43359375 C11.87309814 2.51407959 11.07041504 2.59456543 10.2434082 2.67749023 C7.08942327 3.13090346 5.39623452 3.87762085 3 6 C1.44934145 8.58103035 0.17738609 11.23084054 -1 14 C-1.33 14 -1.66 14 -2 14 C-1.85795259 12.41632253 -1.71119847 10.83306682 -1.5625 9.25 C-1.48128906 8.36828125 -1.40007812 7.4865625 -1.31640625 6.578125 C-1 4 -1 4 0 0 Z " fill="#EDEFF5" transform="translate(456,34)"/>
<path d="M0 0 C2.64 0 5.28 0 8 0 C8 7.59 8 15.18 8 23 C18.06871668 23.31189467 18.06871668 23.31189467 26.9375 19.4375 C27.618125 18.633125 28.29875 17.82875 29 17 C29 21.29 29 25.58 29 30 C28.01 28.68 27.02 27.36 26 26 C22.43755339 24.8125178 19.02681357 24.64932792 15.3125 24.4375 C12.899375 24.293125 10.48625 24.14875 8 24 C8 31.26 8 38.52 8 46 C10.68125 45.9175 13.3625 45.835 16.125 45.75 C17.37434326 45.72631348 17.37434326 45.72631348 18.64892578 45.70214844 C24.66286712 45.42950495 28.3732494 43.66340293 32.6796875 39.296875 C33.07414062 38.78640625 33.46859375 38.2759375 33.875 37.75 C34.926875 36.38875 34.926875 36.38875 36 35 C37 37 37 37 34 48 C15.685 47.505 15.685 47.505 -3 47 C-2.01 46.01 -1.02 45.02 0 44 C0.43217002 41.9272472 0.43217002 41.9272472 0.34057617 39.62036133 C0.34034958 38.73967484 0.34012299 37.85898834 0.33988953 36.95161438 C0.32440567 36.00465195 0.30892181 35.05768951 0.29296875 34.08203125 C0.28872391 33.10965012 0.28447906 32.13726898 0.28010559 31.13542175 C0.26330315 28.02750034 0.22564779 24.92022566 0.1875 21.8125 C0.1724552 19.70638957 0.15876644 17.60026898 0.14648438 15.49414062 C0.11339444 10.32917762 0.06160109 5.16469849 0 0 Z " fill="#E9EBF0" transform="translate(323,35)"/>
<path d="M0 0 C5.94 0 11.88 0 18 0 C15 2 15 2 13 3 C12.67 17.52 12.34 32.04 12 47 C25.60822413 46.60428877 25.60822413 46.60428877 35.4375 39.3125 C36.30486418 38.21866998 37.16387755 37.11789265 38 36 C39 38 39 38 36 49 C24.12 48.67 12.24 48.34 0 48 C1.32 47.01 2.64 46.02 4 45 C4.60014168 43.04156129 4.60014168 43.04156129 4.51757812 40.8515625 C4.53018677 40.02060059 4.54279541 39.18963867 4.55578613 38.33349609 C4.54768921 37.43969238 4.53959229 36.54588867 4.53125 35.625 C4.5350769 34.70412598 4.53890381 33.78325195 4.54284668 32.83447266 C4.54556842 30.88768419 4.53818889 28.94085932 4.52148438 26.99414062 C4.50007815 24.01089095 4.5212768 21.03004959 4.546875 18.046875 C4.54423177 16.15624467 4.53910689 14.26561585 4.53125 12.375 C4.53934692 11.48119629 4.54744385 10.58739258 4.55578613 9.66650391 C4.54317749 8.83554199 4.53056885 8.00458008 4.51757812 7.1484375 C4.51439575 6.41802246 4.51121338 5.68760742 4.50793457 4.93505859 C4.05517366 2.39403355 4.05517366 2.39403355 0 0 Z " fill="#E9EBF1" transform="translate(361,34)"/>
<path d="M0 0 C-0.66 0.33 -1.32 0.66 -2 1 C-4.47911428 0.12378711 -6.88425659 -0.81180692 -9.3125 -1.8125 C-16.52571168 -4.67319418 -23.24962816 -6.23027129 -31 -7 C-31 -6.34 -31 -5.68 -31 -5 C-29.7625 -4.938125 -28.525 -4.87625 -27.25 -4.8125 C-16.46268946 -3.57821525 -3.76417755 2.39887234 3.3125 10.71875 C3.869375 11.4715625 4.42625 12.224375 5 13 C0.9144897 11.48252475 -3.32684711 9.90037118 -6.265625 6.5625 C-15.21408625 -1.4991768 -31.09859382 -2.6942202 -42.57421875 -2.3828125 C-49.51874732 -1.96119666 -55.61666322 0.31811198 -62 3 C-62.94875 3.39574219 -63.8975 3.79148437 -64.875 4.19921875 C-70.76856622 6.9034313 -75.35727955 10.49993297 -80 15 C-80 10.76108921 -78.19560166 9.72888529 -75.25 6.75 C-53.63123594 -14.49348701 -25.23513918 -13.80933403 0 0 Z " fill="#082ECE" transform="translate(106,23)"/>
<path d="M0 0 C0.66 0 1.32 0 2 0 C3.57102489 3.80677259 5.1374843 7.61538764 6.69970703 11.42578125 C7.23197786 12.72219683 7.76550105 14.01809894 8.30029297 15.31347656 C9.06805964 17.17377949 9.83097659 19.03608163 10.59375 20.8984375 C11.05458984 22.01911621 11.51542969 23.13979492 11.99023438 24.29443359 C13 27 13 27 13 29 C4.75 29 -3.5 29 -12 29 C-10.14375 24.3284375 -10.14375 24.3284375 -8.25 19.5625 C-7.67813965 18.11919312 -7.67813965 18.11919312 -7.09472656 16.64672852 C-4.85794257 11.03702536 -2.49758026 5.49854228 0 0 Z " fill="#2B2B2B" transform="translate(424,40)"/>
<path d="M0 0 C5.61 0 11.22 0 17 0 C15.68 0.99 14.36 1.98 13 3 C12.42524966 5.0232867 12.42524966 5.0232867 12.54589844 7.2878418 C12.54620056 8.14850754 12.54650269 9.00917328 12.54681396 9.8959198 C12.56745911 10.82100845 12.58810425 11.74609711 12.609375 12.69921875 C12.61503479 13.64940384 12.62069458 14.59958893 12.62652588 15.5785675 C12.64892852 18.61538944 12.6991323 21.65103431 12.75 24.6875 C12.77005996 26.74542568 12.78831161 28.80336983 12.8046875 30.86132812 C12.84880613 35.90800607 12.9178607 40.95380343 13 46 C14.32 46.66 15.64 47.32 17 48 C11.39 48 5.78 48 0 48 C1.32 47.34 2.64 46.68 4 46 C4.09878601 39.93111949 4.17142949 33.86270561 4.21972656 27.79321289 C4.23985731 25.72802582 4.26716445 23.66289584 4.30175781 21.59790039 C4.35021162 18.63152999 4.37295385 15.66591228 4.390625 12.69921875 C4.41127014 11.7741301 4.43191528 10.84904144 4.45318604 9.8959198 C4.45348816 9.03525406 4.45379028 8.17458832 4.45410156 7.2878418 C4.46298401 6.53061325 4.47186646 5.7733847 4.48101807 4.99320984 C4.07789591 2.3949651 4.07789591 2.3949651 0 0 Z " fill="#EAEBF1" transform="translate(252,34)"/>
<path d="M0 0 C4.10391862 -0.1177595 8.20739356 -0.18776774 12.3125 -0.25 C13.46041016 -0.28351562 14.60832031 -0.31703125 15.79101562 -0.3515625 C24.8209862 -0.45388511 32.33996518 0.99039418 40 5.9375 C46.1457962 12.27535233 46.49184791 18.87202823 46.39453125 27.3828125 C45.77863496 33.02954481 43.84418511 36.85132498 40 41 C34.76546967 45.20309578 29.72572255 47.70757728 23 48 C25.10767592 45.89232408 26.17148013 45.50064875 28.9375 44.625 C32.4233972 43.35797407 34.24676132 42.40907522 36 39 C39.16585387 30.79004313 39.3539842 21.67443461 36.3125 13.375 C34.1318105 8.69112467 31.54722964 6.35586392 27.00390625 3.9375 C21.6550706 2.26816248 16.05158835 2.56148919 10.484375 2.43359375 C9.56914063 2.40394531 8.65390625 2.37429687 7.7109375 2.34375 C6.46256104 2.31571289 6.46256104 2.31571289 5.18896484 2.28710938 C3 2 3 2 0 0 Z " fill="#DFE1E6" transform="translate(542,34)"/>
<path d="M0 0 C0.78375 0.350625 1.5675 0.70125 2.375 1.0625 C3.24125 1.371875 4.1075 1.68125 5 2 C5.66 1.67 6.32 1.34 7 1 C9.275885 2.7437428 11.54564631 4.49458423 13.8125 6.25 C14.45509766 6.74113281 15.09769531 7.23226562 15.75976562 7.73828125 C22.73144353 13.15668376 22.73144353 13.15668376 24 16 C23.19921875 19.015625 23.19921875 19.015625 21.6875 22.25 C21.19636719 23.32765625 20.70523438 24.4053125 20.19921875 25.515625 C19.80347656 26.33546875 19.40773437 27.1553125 19 28 C18.67 28 18.34 28 18 28 C17.90203125 27.20335938 17.8040625 26.40671875 17.703125 25.5859375 C16.56133667 17.09212887 16.56133667 17.09212887 12 10 C8.24430718 7.67469056 8.24430718 7.67469056 4 7 C3.25556641 8.44632812 3.25556641 8.44632812 2.49609375 9.921875 C1.81087674 11.19844367 1.12462322 12.47445635 0.4375 13.75 C0.11458984 14.38421875 -0.20832031 15.0184375 -0.54101562 15.671875 C-3.26465038 20.6522357 -5.97805313 22.42210607 -11 25 C-12.19516672 26.47823253 -13.39010043 27.95729721 -14.54296875 29.46875 C-17.3883755 32.45909704 -21.18046276 34.49169551 -25 36 C-25.66 35.67 -26.32 35.34 -27 35 C-26.35933594 34.61070313 -25.71867187 34.22140625 -25.05859375 33.8203125 C-12.54882055 25.72904339 -6.89601289 12.76544836 0 0 Z " fill="#252933" transform="translate(110,60)"/>
<path d="M0 0 C7.01841999 4.00038104 12.57262886 9.58375986 15.31640625 17.3203125 C14.82140625 18.8053125 14.82140625 18.8053125 14.31640625 20.3203125 C13.75953125 19.4128125 13.20265625 18.5053125 12.62890625 17.5703125 C8.04428571 11.12706201 2.97096506 8.67518919 -4.68359375 7.3203125 C-12.05473326 6.82432485 -18.71817669 6.63884059 -25.68359375 9.3203125 C-25.37437491 7.86127992 -25.06110576 6.40310528 -24.74609375 4.9453125 C-24.57207031 4.13320313 -24.39804688 3.32109375 -24.21875 2.484375 C-23.68359375 0.3203125 -23.68359375 0.3203125 -22.68359375 -1.6796875 C-15.18381252 -4.17961458 -7.10764382 -3.26289909 0 0 Z " fill="#4895D2" transform="translate(180.68359375,33.6796875)"/>
<path d="M0 0 C2.31 0.66 4.62 1.32 7 2 C3.63965844 9.59307948 -0.53937991 15.7607549 -6 22 C-6.89138672 23.06927734 -6.89138672 23.06927734 -7.80078125 24.16015625 C-14.41758975 31.51374 -23.95714487 36.92317391 -33.875 37.9375 C-35.24921863 37.98831516 -36.62502102 38.02217708 -38 38 C-35.32197506 36.21465004 -33.42987093 35.43175487 -30.4375 34.4375 C-15.59857604 28.56240929 -7.39562016 13.24278235 0 0 Z " fill="#022BC7" transform="translate(114,66)"/>
<path d="M0 0 C3.96509139 -0.09990539 7.92968163 -0.17194834 11.89575195 -0.21972656 C13.89756051 -0.24940781 15.89901919 -0.30027058 17.90039062 -0.3515625 C26.83945294 -0.44162862 33.62887503 0.26855185 40.5625 6.1875 C42.61200326 10.19739768 42.63970254 13.58449221 42 18 C40.04568008 23.45152397 37.05895447 26.12879575 32.19921875 29.1015625 C29.42768302 30.23380623 27.23321771 30.19602899 24.25 30.125 C23.26515625 30.10695313 22.2803125 30.08890625 21.265625 30.0703125 C20.51796875 30.04710938 19.7703125 30.02390625 19 30 C19 29.67 19 29.34 19 29 C19.67546875 28.93941406 20.3509375 28.87882812 21.046875 28.81640625 C21.93890625 28.73261719 22.8309375 28.64882813 23.75 28.5625 C24.63171875 28.48128906 25.5134375 28.40007813 26.421875 28.31640625 C28.69350452 28.03761535 30.79851823 27.61209423 33 27 C33.84437321 23.29565303 34.19186639 19.79806243 34.25 16 C34.28867188 14.4840625 34.28867188 14.4840625 34.328125 12.9375 C33.945128 9.50876497 33.0988892 7.72288328 31 5 C27.74302178 2.91305729 25.03526182 2.72676687 21.2109375 2.65625 C20.10492188 2.62660156 18.99890625 2.59695312 17.859375 2.56640625 C15.52864867 2.52198658 13.19791947 2.47771674 10.8671875 2.43359375 C9.21203125 2.38912109 9.21203125 2.38912109 7.5234375 2.34375 C6.0062915 2.31571289 6.0062915 2.31571289 4.45849609 2.28710938 C2 2 2 2 0 0 Z " fill="#D6D7DC" transform="translate(208,34)"/>
<path d="M0 0 C-0.92351221 6.32674784 -2.03058516 9.69317381 -7 14 C-8.84694772 16.11762109 -10.65001628 18.26753616 -12.44921875 20.42578125 C-12.96097656 20.94527344 -13.47273437 21.46476562 -14 22 C-14.66 22 -15.32 22 -16 22 C-17.5078125 20.25 -17.5078125 20.25 -19.125 18 C-19.66382813 17.2575 -20.20265625 16.515 -20.7578125 15.75 C-21.16773438 15.1725 -21.57765625 14.595 -22 14 C-6.85375494 -2.28458498 -6.85375494 -2.28458498 0 0 Z " fill="#3F5EE8" transform="translate(158,34)"/>
<path d="M0 0 C0.495 0.99 0.495 0.99 1 2 C-0.60463449 1.68991116 -2.20869231 1.37683713 -3.8125 1.0625 C-4.70582031 0.88847656 -5.59914062 0.71445312 -6.51953125 0.53515625 C-9 0 -9 0 -12 -1 C-22.43410897 -2.02143074 -30.17099383 -1.11936991 -39 5 C-43.08992703 8.38476719 -46.47313196 11.97156904 -49.25 16.5 C-50.11625 17.7375 -50.11625 17.7375 -51 19 C-52.32 19 -53.64 19 -55 19 C-55.66 18.01 -56.32 17.02 -57 16 C-41.55222417 -0.31852728 -21.97880451 -12.50518187 0 0 Z " fill="#072FC2" transform="translate(185,24)"/>
<path d="M0 0 C0.66 0.33 1.32 0.66 2 1 C-0.84028991 4.20677893 -3.36254703 6.30361436 -7.1875 8.25 C-12.06707185 10.8040234 -15.77853687 14.21776077 -19.73828125 18.01171875 C-21.78077046 19.80727489 -23.51714773 20.93754376 -26 22 C-28 19 -28 19 -27.921875 17.0546875 C-24.18645062 8.72912299 -10.87609577 4.23322681 -3 1 C-2.01 0.67 -1.02 0.34 0 0 Z " fill="#262932" transform="translate(153,18)"/>
<path d="M0 0 C14.19 0 28.38 0 43 0 C41 11 41 11 39 13 C38.80664062 12.36191406 38.61328125 11.72382812 38.4140625 11.06640625 C38.02347656 9.82697266 38.02347656 9.82697266 37.625 8.5625 C37.36976563 7.73878906 37.11453125 6.91507813 36.8515625 6.06640625 C36.19117773 3.82201984 36.19117773 3.82201984 34 3 C19.39564286 1.36752772 19.39564286 1.36752772 5.1875 4.0625 C2.0484185 6.84282933 0.62274664 10.18337243 -1 14 C-1.33 14 -1.66 14 -2 14 C-1.85795259 12.41632253 -1.71119847 10.83306682 -1.5625 9.25 C-1.48128906 8.36828125 -1.40007812 7.4865625 -1.31640625 6.578125 C-1 4 -1 4 0 0 Z " fill="#949598" transform="translate(456,34)"/>
<path d="M0 0 C17.16 0 34.32 0 52 0 C52.66 3.63 53.32 7.26 54 11 C53.278125 10.236875 52.55625 9.47375 51.8125 8.6875 C46.55904219 3.6675292 42.7230778 2.53426819 35.6875 2.3125 C33.150625 2.209375 30.61375 2.10625 28 2 C28 8.93 28 15.86 28 23 C32.62 23 37.24 23 42 23 C42 23.33 42 23.66 42 24 C37.05 24 32.1 24 27 24 C27 16.41 27 8.82 27 1 C23.596875 1.2475 23.596875 1.2475 20.125 1.5 C5.7774396 2.46919776 5.7774396 2.46919776 2 2 C1.34 1.34 0.68 0.68 0 0 Z " fill="#898A8D" transform="translate(304,34)"/>
<path d="M0 0 C0.33 0.66 0.66 1.32 1 2 C1.66 2.33 2.32 2.66 3 3 C2.34 3 1.68 3 1 3 C0.74802856 3.79942017 0.74802856 3.79942017 0.4909668 4.61499023 C-1.43455413 10.57205046 -3.72059588 16.31148203 -6.1875 22.0625 C-7.445625 25.011875 -8.70375 27.96125 -10 31 C-2.08 31.33 5.84 31.66 14 32 C14.33 32.66 14.66 33.32 15 34 C6.09 34 -2.82 34 -12 34 C-12.33 36.97 -12.66 39.94 -13 43 C-12.34 43.66 -11.68 44.32 -11 45 C-14.3 45 -17.6 45 -21 45 C-20.30003906 44.29230469 -19.60007812 43.58460937 -18.87890625 42.85546875 C-14.62189439 37.73775776 -12.46215365 31.40034541 -9.9375 25.3125 C-9.41690391 24.08360769 -8.89542508 22.85508895 -8.37304688 21.62695312 C-5.3659435 14.49034982 -2.55895826 7.30929997 0 0 Z " fill="#B9BABF" transform="translate(423,37)"/>
<path d="M0 0 C0 3 0 3 -1.46875 4.71875 C-9.27617033 11.56525706 -15.28341771 13.60242052 -25.734375 13.359375 C-31.99405064 12.67051117 -37.72195765 10.75489421 -42 6 C-41.23042969 6.2165625 -41.23042969 6.2165625 -40.4453125 6.4375 C-30.08347971 8.94945946 -16.3643297 10.48132346 -6.703125 5.15625 C-4.34797517 3.55734094 -2.11324997 1.90874191 0 0 Z " fill="#1C3CC9" transform="translate(192,82)"/>
<path d="M0 0 C1.890625 1.0703125 1.890625 1.0703125 3.890625 3.0703125 C2.71886719 2.83634766 2.71886719 2.83634766 1.5234375 2.59765625 C-11.63693726 0.68727927 -23.81742718 0.42229531 -35.109375 8.0703125 C-36.099375 8.5653125 -36.099375 8.5653125 -37.109375 9.0703125 C-35.71362017 5.76344721 -34.1846657 4.05455924 -31.296875 1.9453125 C-30.63042969 1.44773437 -29.96398438 0.95015625 -29.27734375 0.4375 C-20.33400526 -5.20244319 -9.36229624 -4.18513243 0 0 Z " fill="#1E48CD" transform="translate(85.109375,44.9296875)"/>
<path d="M0 0 C4.39654647 2.42596632 8.03340788 5.42239811 11.8125 8.6875 C12.40998047 9.19861328 13.00746094 9.70972656 13.62304688 10.23632812 C15.08483433 11.48761819 16.54280933 12.74335973 18 14 C16.35 18.29 14.7 22.58 13 27 C12.67 27 12.34 27 12 27 C11.90203125 26.20335938 11.8040625 25.40671875 11.703125 24.5859375 C10.59007026 16.0637809 10.59007026 16.0637809 6 9 C3.42066151 7.42867885 0.79008899 6.15125031 -2 5 C-1.34 3.35 -0.68 1.7 0 0 Z " fill="#1C3874" transform="translate(116,61)"/>
<path d="M0 0 C-0.66 0.33 -1.32 0.66 -2 1 C-4.57421875 0.07421875 -4.57421875 0.07421875 -7.6875 -1.3125 C-21.57846237 -7.47253287 -37.83151186 -8.5647295 -52.2734375 -3.265625 C-59.40620003 0.04528483 -65.17104822 4.79114948 -71 10 C-70.690625 9.401875 -70.38125 8.80375 -70.0625 8.1875 C-68.89790296 5.91043228 -68.89790296 5.91043228 -68 3 C-66.31726405 1.98400848 -64.63025614 0.97019842 -62.88671875 0.0625 C-60.94355288 -0.96407672 -60.94355288 -0.96407672 -59.1875 -2.45703125 C-41.82206257 -14.70586658 -17.05575809 -9.7920117 0 0 Z " fill="#6C80E1" transform="translate(101,29)"/>
<path d="M0 0 C1.32 0 2.64 0 4 0 C5.75954753 4.50884055 6.51828487 8.16267452 6 13 C3.7481855 17.33682792 1.57681459 20.16927416 -3 22 C-7.89614183 22.55279021 -11.65880392 22.47083949 -16 20 C-15.18015625 19.91363281 -14.3603125 19.82726562 -13.515625 19.73828125 C-12.43796875 19.59777344 -11.3603125 19.45726563 -10.25 19.3125 C-9.18265625 19.18488281 -8.1153125 19.05726562 -7.015625 18.92578125 C-3.14864575 17.73863866 -1.99666633 16.49416608 0 13 C0.48079519 9.65005199 0.48079519 9.65005199 0.25 6.1875 C0.19585937 4.44533203 0.19585937 4.44533203 0.140625 2.66796875 C0.09421875 1.78753906 0.0478125 0.90710937 0 0 Z " fill="#297CC7" transform="translate(177,46)"/>
<path d="M0 0 C1.0257259 4.41062136 1.03684712 6.92630576 -1 11 C-2.27875 11.061875 -3.5575 11.12375 -4.875 11.1875 C-5.59429687 11.22230469 -6.31359375 11.25710937 -7.0546875 11.29296875 C-7.69664062 11.19628906 -8.33859375 11.09960938 -9 11 C-11 8 -11 8 -10.8125 4.4375 C-9.26647301 -2.1033834 -5.64697672 -1.06546731 0 0 Z " fill="#3D3D3D" transform="translate(224,94)"/>
<path d="M0 0 C7.65945371 0.31391204 13.99443474 1.32605016 19.79296875 6.64453125 C22.75923422 9.87853565 24.72514783 12.46493921 25 17 C23.62437146 15.71034824 22.29233607 14.37310707 21 13 C21 12.34 21 11.68 21 11 C17.52668579 9.51503233 14.18404542 8.55717849 10.5 7.75 C5.11321843 6.34696512 2.98710668 4.63516554 0 0 Z " fill="#164B7F" transform="translate(171,40)"/>
<path d="M0 0 C11.88 0 23.76 0 36 0 C38.25 7.875 38.25 7.875 37 11 C36.59007812 10.50628906 36.18015625 10.01257812 35.7578125 9.50390625 C35.21898437 8.86324219 34.68015625 8.22257812 34.125 7.5625 C33.59132813 6.92441406 33.05765625 6.28632812 32.5078125 5.62890625 C30.43301823 3.38748342 29.39264529 3.02549039 26.32617188 2.82641602 C25.21822266 2.80248779 24.11027344 2.77855957 22.96875 2.75390625 C21.16470703 2.70459961 21.16470703 2.70459961 19.32421875 2.65429688 C16.77483031 2.59310114 14.22534517 2.53580907 11.67578125 2.48242188 C10.47308594 2.44826172 9.27039063 2.41410156 8.03125 2.37890625 C6.92330078 2.3538501 5.81535156 2.32879395 4.67382812 2.30297852 C2 2 2 2 0 0 Z " fill="#96979A" transform="translate(500,34)"/>
<path d="M0 0 C0.99 0 1.98 0 3 0 C2.71349017 3.43811794 2.26566773 4.74171193 -0.25 7.1875 C-5.39616113 10.57928802 -9.81256573 11.78049902 -16 11 C-18.78609509 10.17888509 -21.32145779 9.14794666 -24 8 C-24 7.67 -24 7.34 -24 7 C-22.62328125 7.06960937 -22.62328125 7.06960937 -21.21875 7.140625 C-13.61134193 7.3643723 -8.38560883 7.29800595 -2 3 C-1.34 2.01 -0.68 1.02 0 0 Z " fill="#278ACF" transform="translate(179,66)"/>
<path d="M0 0 C0 0.33 0 0.66 0 1 C-0.83402344 1.09796875 -1.66804688 1.1959375 -2.52734375 1.296875 C-14.32567774 2.86458032 -21.37188345 5.89644399 -30 14 C-31.15887328 14.98837806 -32.32473853 15.96866619 -33.5 16.9375 C-34.7375 17.9584375 -34.7375 17.9584375 -36 19 C-33.26854774 11.1977824 -27.44235717 6.49664717 -20.375 2.5 C-13.63737594 -0.68787839 -7.31728203 -0.58451661 0 0 Z " fill="#5D7CE3" transform="translate(172,22)"/>
<path d="M0 0 C12.79032358 2.4755465 26.00594416 7.16154755 34 18 C29.9144897 16.48252475 25.67315289 14.90037118 22.734375 11.5625 C16.80248052 6.21845092 6.68181613 4.43220301 -1 3 C-0.67 2.01 -0.34 1.02 0 0 Z " fill="#2D49F7" transform="translate(77,18)"/>
<path d="M0 0 C1.43375977 -0.02416992 1.43375977 -0.02416992 2.89648438 -0.04882812 C11.49883799 -0.05469203 18.27271534 2.03824602 25.875 6 C26.72191406 6.43699219 27.56882813 6.87398437 28.44140625 7.32421875 C29.36759766 7.81341797 29.36759766 7.81341797 30.3125 8.3125 C29.6525 8.6425 28.9925 8.9725 28.3125 9.3125 C25.83338572 8.43628711 23.42824341 7.50069308 21 6.5 C13.78678832 3.63930582 7.06287184 2.08222871 -0.6875 1.3125 C-0.6875 1.9725 -0.6875 2.6325 -0.6875 3.3125 C-7.6175 2.8175 -7.6175 2.8175 -14.6875 2.3125 C-9.57400973 -0.24424514 -5.62249507 -0.01858062 0 0 Z " fill="#2A49EB" transform="translate(75.6875,14.6875)"/>
<path d="M0 0 C-0.020625 0.721875 -0.04125 1.44375 -0.0625 2.1875 C-0.08356542 5.00835294 -0.08356542 5.00835294 0.5625 7.75 C0.706875 8.4925 0.85125 9.235 1 10 C0 11 0 11 -3.5625 11.0625 C-4.696875 11.041875 -5.83125 11.02125 -7 11 C-7 7.37 -7 3.74 -7 0 C-3.86650268 -1.04449911 -3.01031744 -0.93423645 0 0 Z " fill="#C4C6CA" transform="translate(321,94)"/>
<path d="M0 0 C0 5.1421104 -3.61286165 8.35956261 -7 12 C-14.39531553 18.51519297 -22.68167277 23.57163883 -32.6875 24.25 C-33.450625 24.1675 -34.21375 24.085 -35 24 C-32.00995755 22.41088653 -29.02565914 21.30714327 -25.8125 20.25 C-15.005108 16.34094332 -6.71422672 9.26810436 0 0 Z " fill="#627DEA" transform="translate(113,81)"/>
<path d="M0 0 C0.99 0.33 1.98 0.66 3 1 C1.57514189 5.99466391 -0.57923288 9.9375749 -3.375 14.25 C-3.76171875 14.87390625 -4.1484375 15.4978125 -4.546875 16.140625 C-6.64307906 19.4045132 -8.24432138 21.73095791 -12 23 C-10.2010497 17.92365174 -7.50973545 13.36286389 -4.875 8.6875 C-4.40707031 7.85154297 -3.93914062 7.01558594 -3.45703125 6.15429688 C-2.3073741 4.10133767 -1.15496198 2.04997798 0 0 Z " fill="#215DC3" transform="translate(110,60)"/>
<path d="M0 0 C0.66 0.99 1.32 1.98 2 3 C1.38511719 3.67546875 0.77023437 4.3509375 0.13671875 5.046875 C-0.67152344 5.93890625 -1.47976563 6.8309375 -2.3125 7.75 C-3.11300781 8.63171875 -3.91351563 9.5134375 -4.73828125 10.421875 C-9.07647433 14.9924854 -9.07647433 14.9924854 -10 21 C-9.34 21.66 -8.68 22.32 -8 23 C-12.29 23 -16.58 23 -21 23 C-20.01 22.34 -19.02 21.68 -18 21 C-10.91730377 15.65184162 -4.00296515 8.00593031 0 0 Z " fill="#CACBD0" transform="translate(291,59)"/>
<path d="M0 0 C-0.89460938 0.40089844 -1.78921875 0.80179688 -2.7109375 1.21484375 C-10.21211927 4.70069316 -16.10464936 8.33056297 -22.01171875 14.27734375 C-24 16 -24 16 -27 16 C-27 15.01 -27 14.02 -27 13 C-21.17582572 7.52597648 -8.19020675 -2.73006892 0 0 Z " fill="#172C87" transform="translate(153,20)"/>
<path d="M0 0 C1.63001953 0.01353516 1.63001953 0.01353516 3.29296875 0.02734375 C4.12441406 0.03894531 4.95585937 0.05054687 5.8125 0.0625 C5.8125 0.3925 5.8125 0.7225 5.8125 1.0625 C2.5125 1.0625 -0.7875 1.0625 -4.1875 1.0625 C-4.39375 2.50625 -4.6 3.95 -4.8125 5.4375 C-5.34375 7.92578125 -5.34375 7.92578125 -6.1875 10.0625 C-9.3125 11.625 -9.3125 11.625 -12.1875 12.0625 C-11.87828116 10.60346742 -11.56501201 9.14529278 -11.25 7.6875 C-11.07597656 6.87539063 -10.90195313 6.06328125 -10.72265625 5.2265625 C-10.1875 3.0625 -10.1875 3.0625 -9.1875 1.0625 C-5.90230525 -0.03256492 -3.45086585 -0.03710608 0 0 Z " fill="#4B79EA" transform="translate(167.1875,30.9375)"/>
<path d="M0 0 C2.86911611 2.74437194 3.91341714 4.11685479 4.3125 8.1875 C3.94087195 12.72136227 2.88037058 15.50563193 0 19 C-5.00968752 22.78781251 -10.94500036 22.73192303 -17 22 C-17.99 21.34 -18.98 20.68 -20 20 C-18.69675781 20.06960937 -18.69675781 20.06960937 -17.3671875 20.140625 C-10.03489817 20.63562041 -10.03489817 20.63562041 -3.3125 18.25 C0.11885381 14.91138548 0.92475969 13.37940565 1.1875 8.5625 C1.03043367 5.57823979 0.70200829 2.89578419 0 0 Z " fill="#75B3DF" transform="translate(181,47)"/>
<path d="M0 0 C2.31 0 4.62 0 7 0 C7 3.96 7 7.92 7 12 C6.01 12 5.02 12 4 12 C4 8.7 4 5.4 4 2 C3.01 2.495 3.01 2.495 2 3 C2 5.97 2 8.94 2 12 C1.01 11.67 0.02 11.34 -1 11 C-1.0270043 9.54176788 -1.04639787 8.08339325 -1.0625 6.625 C-1.07410156 5.81289062 -1.08570313 5.00078125 -1.09765625 4.1640625 C-1 2 -1 2 0 0 Z " fill="#999A9D" transform="translate(250,93)"/>
<path d="M0 0 C1.38971011 2.77942022 0.58597169 4.07038614 -0.3125 7 C-0.70888672 8.3303125 -0.70888672 8.3303125 -1.11328125 9.6875 C-2 12 -2 12 -4 14 C-6.72869407 13.96712417 -9.2966618 13.43602229 -12 13 C-12 12.34 -12 11.68 -12 11 C-10.948125 10.484375 -9.89625 9.96875 -8.8125 9.4375 C-4.57856093 7.05375788 -2.579131 4.06408521 0 0 Z " fill="#E3E5EA" transform="translate(540,69)"/>
<path d="M0 0 C0 0.33 0 0.66 0 1 C-1.30710937 1.00386719 -1.30710937 1.00386719 -2.640625 1.0078125 C-11.79855061 1.30514775 -18.14608534 3.36144637 -26 8 C-26.99 8.495 -26.99 8.495 -28 9 C-26.48282515 4.90362792 -23.64633403 2.26411904 -20 0 C-13.52078532 -1.85120419 -6.62240531 -0.64730278 0 0 Z " fill="#14268E" transform="translate(76,45)"/>
<path d="M0 0 C2.97 0 5.94 0 9 0 C8.360625 0.61875 7.72125 1.2375 7.0625 1.875 C1.35276262 7.58473738 -4.00577978 13.65813305 -9 20 C-9.99 19.67 -10.98 19.34 -12 19 C-11.34 18.38125 -10.68 17.7625 -10 17.125 C-7.40616462 14.50867471 -4.99761113 11.75549603 -2.625 8.9375 C-1.91601562 8.10089844 -1.20703125 7.26429687 -0.4765625 6.40234375 C0.01070313 5.60957031 0.49796875 4.81679688 1 4 C0.67 2.68 0.34 1.36 0 0 Z " fill="#D0D1D6" transform="translate(307,35)"/>
<path d="M0 0 C0.99 0.33 1.98 0.66 3 1 C0.36 6.28 -2.28 11.56 -5 17 C-5.99 17 -6.98 17 -8 17 C-6.59441952 10.53432978 -3.54628896 5.54247048 0 0 Z " fill="#2A67E1" transform="translate(120,69)"/>
<path d="M0 0 C0.33 0 0.66 0 1 0 C1 4.29 1 8.58 1 13 C0.01 11.68 -0.98 10.36 -2 9 C-5.56086658 7.81304447 -8.97331024 7.64904582 -12.6875 7.4375 C-13.7403418 7.37272461 -13.7403418 7.37272461 -14.81445312 7.30664062 C-16.54275206 7.2008264 -18.2713511 7.09993419 -20 7 C-20 6.67 -20 6.34 -20 6 C-18.46279297 5.97873047 -18.46279297 5.97873047 -16.89453125 5.95703125 C-15.53381029 5.91010984 -14.17313459 5.86186256 -12.8125 5.8125 C-12.13896484 5.80669922 -11.46542969 5.80089844 -10.77148438 5.79492188 C-6.75480994 5.61858007 -5.14490592 5.1263332 -2.07421875 2.44921875 C-1.38972656 1.64097656 -0.70523437 0.83273438 0 0 Z " fill="#D5D7DC" transform="translate(351,52)"/>
<path d="M0 0 C1.64767247 0.28109113 3.29313145 0.57518526 4.9375 0.875 C5.85402344 1.03742188 6.77054688 1.19984375 7.71484375 1.3671875 C8.46894531 1.57601562 9.22304687 1.78484375 10 2 C10.33 2.66 10.66 3.32 11 4 C13.71446979 4.31241455 16.33909361 4.51336592 19.0625 4.625 C19.82111328 4.66367188 20.57972656 4.70234375 21.36132812 4.7421875 C23.24047195 4.83673562 25.12020336 4.91946756 27 5 C26.67 5.66 26.34 6.32 26 7 C17.59507706 7.47425897 10.43670225 7.29261385 3 3 C1.2265625 1.36328125 1.2265625 1.36328125 0 0 Z " fill="#10238F" transform="translate(150,88)"/>
<path d="M0 0 C3.63 0 7.26 0 11 0 C8 2 8 2 5.5625 3.125 C1.98696712 5.74124357 0.70382867 8.99267111 -1 13 C-1.33 13 -1.66 13 -2 13 C-1.85851011 11.3954444 -1.71164314 9.79136233 -1.5625 8.1875 C-1.48128906 7.29417969 -1.40007812 6.40085937 -1.31640625 5.48046875 C-1 3 -1 3 0 0 Z " fill="#DFE1E6" transform="translate(456,35)"/>
<path d="M0 0 C3.63 0 7.26 0 11 0 C10.01 3.96 9.02 7.92 8 12 C7.67 12 7.34 12 7 12 C6.82984375 11.38511719 6.6596875 10.77023438 6.484375 10.13671875 C6.12085938 8.92435547 6.12085938 8.92435547 5.75 7.6875 C5.51796875 6.88699219 5.2859375 6.08648437 5.046875 5.26171875 C3.98225702 2.49297509 3.98225702 2.49297509 0 0 Z " fill="#E9EBF1" transform="translate(488,35)"/>
<path d="M0 0 C0.66 0 1.32 0 2 0 C2.99 2.31 3.98 4.62 5 7 C5.66 7 6.32 7 7 7 C6.67 8.32 6.34 9.64 6 11 C2.25 12.125 2.25 12.125 0 11 C0 7.37 0 3.74 0 0 Z " fill="#666769" transform="translate(240,94)"/>
<path d="M0 0 C0.33 0 0.66 0 1 0 C1 3.63 1 7.26 1 11 C0.01 10.01 -0.98 9.02 -2 8 C-5.46712111 6.84429296 -8.5414956 6.67164707 -12.1875 6.4375 C-13.45980469 6.35371094 -14.73210938 6.26992188 -16.04296875 6.18359375 C-17.01878906 6.12300781 -17.99460937 6.06242187 -19 6 C-19 5.67 -19 5.34 -19 5 C-18.03578125 4.93941406 -17.0715625 4.87882812 -16.078125 4.81640625 C-14.81484375 4.73261719 -13.5515625 4.64882813 -12.25 4.5625 C-10.99703125 4.48128906 -9.7440625 4.40007813 -8.453125 4.31640625 C-4.63230661 4.03417168 -4.63230661 4.03417168 -1 3 C-0.67 2.01 -0.34 1.02 0 0 Z " fill="#DEE0E6" transform="translate(531,53)"/>
<path d="M0 0 C3.37063005 3.37063005 3.75398534 5.51434723 5 10 C5.66 10.33 6.32 10.66 7 11 C5.68 11 4.36 11 3 11 C3 9.68 3 8.36 3 7 C1.35 7 -0.3 7 -2 7 C-2 8.32 -2 9.64 -2 11 C-2.99 10.67 -3.98 10.34 -5 10 C-3.35 6.7 -1.7 3.4 0 0 Z " fill="#CBCCD1" transform="translate(231,94)"/>
<path d="M0 0 C0 4.02193181 -1.47315806 5.29327992 -4.07421875 8.2109375 C-7.26147392 11.17191695 -10.93478293 13.43895664 -15 15 C-15.66 14.67 -16.32 14.34 -17 14 C-16.32453125 13.55269531 -15.6490625 13.10539062 -14.953125 12.64453125 C-10.25216494 9.45847595 -6.33649102 6.67108743 -3 2 C-2.01 1.34 -1.02 0.68 0 0 Z " fill="#152273" transform="translate(100,81)"/>
<path d="M0 0 C3.63 0 7.26 0 11 0 C11.33 3.3 11.66 6.6 12 10 C10.88625 8.8553125 10.88625 8.8553125 9.75 7.6875 C6.67504402 4.68242938 3.56742329 2.37828219 0 0 Z " fill="#E1E2E8" transform="translate(526,35)"/>
<path d="M0 0 C3.3 0 6.6 0 10 0 C10.66 3.3 11.32 6.6 12 10 C10.9790625 8.88625 10.9790625 8.88625 9.9375 7.75 C6.96926868 4.75618047 3.71285128 2.96562715 0 1 C0 0.67 0 0.34 0 0 Z " fill="#E2E3E9" transform="translate(346,35)"/>
<path d="M0 0 C0.66 0.33 1.32 0.66 2 1 C2 2.98 2 4.96 2 7 C3.98 7.66 5.96 8.32 8 9 C7.67 7.35 7.34 5.7 7 4 C8.32 4.33 9.64 4.66 11 5 C10.34 6.65 9.68 8.3 9 10 C7.72125 10.061875 6.4425 10.12375 5.125 10.1875 C4.40570313 10.22230469 3.68640625 10.25710937 2.9453125 10.29296875 C2.30335938 10.19628906 1.66140625 10.09960938 1 10 C-1.56687367 6.1496895 -0.83288724 4.41430237 0 0 Z " fill="#B5B7BB" transform="translate(214,95)"/>
<path d="M0 0 C6.15222436 0.43173504 9.81917949 1.65405342 15 5 C11.14507389 6.28497537 9.59653164 5.4052209 5.8125 4.0625 C4.72582031 3.68222656 3.63914063 3.30195313 2.51953125 2.91015625 C1.68808594 2.60980469 0.85664063 2.30945313 0 2 C0 1.34 0 0.68 0 0 Z " fill="#072CCB" transform="translate(171,20)"/>
<path d="M0 0 C2.4377963 -0.05397335 4.87439685 -0.09365616 7.3125 -0.125 C8.00279297 -0.14175781 8.69308594 -0.15851562 9.40429688 -0.17578125 C13.17135396 -0.21217794 14.78431704 -0.14378864 18 2 C8.595 2.495 8.595 2.495 -1 3 C-0.67 2.01 -0.34 1.02 0 0 Z " fill="#1732BF" transform="translate(64,13)"/>
<path d="M0 0 C1.32 0.33 2.64 0.66 4 1 C4.33 3.31 4.66 5.62 5 8 C3.35 8.33 1.7 8.66 0 9 C0 6.03 0 3.06 0 0 Z " fill="#2A2A2A" transform="translate(316,95)"/>
<path d="M0 0 C1.32 0.33 2.64 0.66 4 1 C3.67 1.33 3.34 1.66 3 2 C2.92820036 3.51928038 2.91607993 5.04167482 2.9375 6.5625 C2.94652344 7.38878906 2.95554687 8.21507813 2.96484375 9.06640625 C2.97644531 9.70449219 2.98804688 10.34257813 3 11 C2.01 11.33 1.02 11.66 0 12 C0 8.04 0 4.08 0 0 Z " fill="#303030" transform="translate(257,93)"/>
<path d="M0 0 C0.66 0.66 1.32 1.32 2 2 C-1.63 5.63 -5.26 9.26 -9 13 C-9.33 12.34 -9.66 11.68 -10 11 C-8.89718873 9.72799029 -7.79269231 8.45744147 -6.6875 7.1875 C-6.07261719 6.47980469 -5.45773438 5.77210937 -4.82421875 5.04296875 C-3.26665665 3.29863261 -1.67341125 1.63221959 0 0 Z " fill="#5B83DC" transform="translate(146,28)"/>
<path d="M0 0 C0.66 0.33 1.32 0.66 2 1 C0.2268675 4.12905736 -0.88309687 4.95588561 -4.3125 6.25 C-7.67779984 6.93446776 -10.58194135 7.16673457 -14 7 C-11.26845992 5.17897328 -8.91736704 4.10388853 -5.875 2.9375 C-2.68623321 1.87284184 -2.68623321 1.87284184 0 0 Z " fill="#072CBC" transform="translate(90,97)"/>
<path d="M0 0 C1.75570312 0.02707031 1.75570312 0.02707031 3.546875 0.0546875 C4.88492188 0.08949219 4.88492188 0.08949219 6.25 0.125 C5.26 0.455 4.27 0.785 3.25 1.125 C3.25 1.785 3.25 2.445 3.25 3.125 C-3.68 2.63 -3.68 2.63 -10.75 2.125 C-6.52746115 0.01373057 -4.60998477 -0.0921997 0 0 Z " fill="#3653E9" transform="translate(71.75,14.875)"/>
<path d="M0 0 C0 0.99 0 1.98 0 3 C1.32 3.66 2.64 4.32 4 5 C-0.29 5 -4.58 5 -9 5 C-8.01 4.34 -7.02 3.68 -6 3 C-5.319375 2.46375 -4.63875 1.9275 -3.9375 1.375 C-2 0 -2 0 0 0 Z " fill="#E6E8EE" transform="translate(279,77)"/>
<path d="M0 0 C1.65322266 0.01740234 1.65322266 0.01740234 3.33984375 0.03515625 C4.99693359 0.04869141 4.99693359 0.04869141 6.6875 0.0625 C7.54214844 0.07410156 8.39679688 0.08570312 9.27734375 0.09765625 C9.27734375 0.42765625 9.27734375 0.75765625 9.27734375 1.09765625 C5.97734375 1.09765625 2.67734375 1.09765625 -0.72265625 1.09765625 C-1.38265625 3.40765625 -2.04265625 5.71765625 -2.72265625 8.09765625 C-3.38265625 8.09765625 -4.04265625 8.09765625 -4.72265625 8.09765625 C-3.708977 0.13303361 -3.708977 0.13303361 0 0 Z " fill="#4888E3" transform="translate(163.72265625,30.90234375)"/>
<path d="M0 0 C0.33 0 0.66 0 1 0 C1.12375 0.78375 1.2475 1.5675 1.375 2.375 C1.79117993 5.14057822 1.79117993 5.14057822 4 7 C0.7 7 -2.6 7 -6 7 C-1.41015625 1.53125 -1.41015625 1.53125 0 0 Z " fill="#EAECF2" transform="translate(408,75)"/>
<path d="M0 0 C2.5 1.25 2.5 1.25 5 3 C5 4.32 5 5.64 5 7 C2.69 6.34 0.38 5.68 -2 5 C-1.34 3.35 -0.68 1.7 0 0 Z " fill="#041972" transform="translate(116,61)"/>
<path d="M0 0 C4.1724106 0.51881113 6.25416821 1.71151274 9.3125 4.5625 C10.00988281 5.20316406 10.70726563 5.84382813 11.42578125 6.50390625 C11.94527344 6.99761719 12.46476562 7.49132813 13 8 C8.96573118 8 6.22317797 6.2554626 3 4 C1.0625 1.75 1.0625 1.75 0 0 Z " fill="#315FEC" transform="translate(98,27)"/>
<path d="M0 0 C2.5654594 2.5654594 2.54046087 4.47686668 3 8 C2.34 8 1.68 8 1 8 C0.67 8.66 0.34 9.32 0 10 C-2.125 5.375 -2.125 5.375 -1 2 C-0.67 1.34 -0.34 0.68 0 0 Z " fill="#021B86" transform="translate(32,73)"/>
<path d="M0 0 C2.97 0 5.94 0 9 0 C7.37660195 1.70884005 5.70680947 3.37446717 4 5 C3.34 5 2.68 5 2 5 C1.34 3.35 0.68 1.7 0 0 Z " fill="#E5E6EC" transform="translate(307,35)"/>
<path d="M0 0 C0 3 0 3 -2.125 5.6875 C-5 8 -5 8 -8.3125 8.3125 C-9.6428125 8.1578125 -9.6428125 8.1578125 -11 8 C-10.01 7.34 -9.02 6.68 -8 6 C-6.59866565 4.96574559 -5.20309695 3.92364688 -3.8125 2.875 C-2.73935547 2.06675781 -2.73935547 2.06675781 -1.64453125 1.2421875 C-1.10183594 0.83226563 -0.55914062 0.42234375 0 0 Z " fill="#2260BF" transform="translate(192,82)"/>
<path d="M0 0 C0.66 0 1.32 0 2 0 C3.0625 1.8125 3.0625 1.8125 4 4 C3.67 4.99 3.34 5.98 3 7 C2.67 6.34 2.34 5.68 2 5 C2 6.98 2 8.96 2 11 C1.34 11 0.68 11 0 11 C0 7.37 0 3.74 0 0 Z " fill="#BDBEC3" transform="translate(240,94)"/>
<path d="M0 0 C0 3.90838866 -1.50567876 5.11594107 -4 8 C-4.99 7.67 -5.98 7.34 -7 7 C-4.78071806 4.09197539 -3.07030857 2.04687238 0 0 Z " fill="#182B9D" transform="translate(100,81)"/>
<path d="M0 0 C0.66 0.33 1.32 0.66 2 1 C2 1.99 2 2.98 2 4 C0.68 4 -0.64 4 -2 4 C-2 5.32 -2 6.64 -2 8 C-2.99 7.67 -3.98 7.34 -5 7 C-2.25 1.125 -2.25 1.125 0 0 Z " fill="#959699" transform="translate(231,97)"/>
<path d="M0 0 C-0.33 1.32 -0.66 2.64 -1 4 C-2.98 4.33 -4.96 4.66 -7 5 C-6.67 3.68 -6.34 2.36 -6 1 C-3.92446352 0.4465236 -2.15634036 0 0 0 Z " fill="#1236D8" transform="translate(63,14)"/>
<path d="M0 0 C0.33 0.66 0.66 1.32 1 2 C0.06553465 4.03144641 -0.93224776 6.03533587 -2 8 C-2.99 8 -3.98 8 -5 8 C-3.8141763 4.62496331 -2.72426311 2.35277269 0 0 Z " fill="#2561E9" transform="translate(117,78)"/>
<path d="M0 0 C0.99 0.33 1.98 0.66 3 1 C2.34 2.65 1.68 4.3 1 6 C0.01 6 -0.98 6 -2 6 C-1.34 4.02 -0.68 2.04 0 0 Z " fill="#2379C9" transform="translate(110,60)"/>
<path d="M0 0 C0 3 0 3 -1.53125 4.60546875 C-2.1809375 5.12753906 -2.830625 5.64960937 -3.5 6.1875 C-4.1496875 6.71730469 -4.799375 7.24710938 -5.46875 7.79296875 C-5.9740625 8.19128906 -6.479375 8.58960938 -7 9 C-7 6 -7 6 -5.46875 4.39453125 C-4.49421875 3.61142578 -4.49421875 3.61142578 -3.5 2.8125 C-2.8503125 2.28269531 -2.200625 1.75289062 -1.53125 1.20703125 C-1.0259375 0.80871094 -0.520625 0.41039062 0 0 Z " fill="#0E28A3" transform="translate(56,45)"/>
<path d="M0 0 C0.66 0.33 1.32 0.66 2 1 C-0.31 3.31 -2.62 5.62 -5 8 C-5.66 7.34 -6.32 6.68 -7 6 C-4.69 4.02 -2.38 2.04 0 0 Z " fill="#0B2AB5" transform="translate(132,28)"/>
<path d="M0 0 C1.32 0.33 2.64 0.66 4 1 C-0.75 5.875 -0.75 5.875 -3 7 C-1.125 2.25 -1.125 2.25 0 0 Z " fill="#1E43C0" transform="translate(101,76)"/>
<path d="M0 0 C1.32 0.33 2.64 0.66 4 1 C3.67 2.32 3.34 3.64 3 5 C2.01 5 1.02 5 0 5 C0 3.35 0 1.7 0 0 Z " fill="#434344" transform="translate(316,95)"/>
<path d="M0 0 C0.99 0.33 1.98 0.66 3 1 C1.35 2.32 -0.3 3.64 -2 5 C-1.34 3.35 -0.68 1.7 0 0 Z " fill="#297FD1" transform="translate(138,36)"/>
</svg>
